<?xml version="1.0" standalone="no"?>
<!DOCTYPE svg PUBLIC "-//W3C//DTD SVG 20010904//EN"
 "http://www.w3.org/TR/2001/REC-SVG-20010904/DTD/svg10.dtd">
<svg version="1.0" xmlns="http://www.w3.org/2000/svg"
 width="256.000000pt" height="256.000000pt" viewBox="0 0 256.000000 256.000000"
 preserveAspectRatio="xMidYMid meet">

<g transform="translate(0.000000,256.000000) scale(0.100000,-0.100000)"
fill="#000000" stroke="none">
<path d="M1198 2119 l-68 -40 0 -94 0 -94 76 -46 76 -46 74 46 74 46 0 85 c0
46 1 87 1 92 2 10 -133 91 -151 91 -8 0 -45 -18 -82 -40z"/>
<path d="M564 1957 c-5 -14 79 -107 96 -107 27 0 17 28 -26 71 -51 52 -61 57
-70 36z"/>
<path d="M1925 1920 c-44 -44 -48 -52 -34 -65 13 -13 20 -10 63 34 32 33 47
55 43 65 -10 24 -19 20 -72 -34z"/>
<path d="M1546 1914 c-11 -28 -7 -32 62 -78 155 -103 251 -231 292 -391 76
-296 -63 -601 -335 -736 -44 -22 -111 -46 -150 -54 -397 -83 -775 222 -775
626 0 170 55 309 172 434 60 64 92 89 196 152 18 11 20 17 12 33 -15 28 -34
25 -94 -11 -168 -103 -293 -275 -332 -459 -23 -110 -15 -260 22 -369 76 -228
288 -417 525 -467 99 -21 259 -14 349 16 348 116 550 466 475 825 -35 168
-158 344 -313 445 -82 54 -97 59 -106 34z"/>
<path d="M1258 1507 c-3 -170 -4 -174 -31 -215 -37 -57 -90 -89 -165 -101 -75
-12 -124 -40 -157 -89 -29 -43 -32 -67 -9 -76 9 -4 17 -5 18 -4 19 49 50 87
87 106 24 12 51 22 61 22 17 0 17 -2 -2 -39 -25 -50 -43 -129 -35 -158 3 -14
13 -23 25 -23 17 0 20 7 20 43 0 67 38 135 116 205 l69 62 3 -67 c4 -83 -8
-128 -49 -179 -18 -21 -43 -63 -57 -93 -20 -44 -22 -55 -11 -62 22 -14 25 -12
44 31 10 22 28 54 40 71 30 39 35 25 35 -97 0 -87 1 -94 20 -94 19 0 20 7 20
112 l0 111 23 -22 c13 -12 34 -44 47 -71 25 -53 27 -55 49 -41 11 7 9 17 -8
57 -12 27 -35 66 -52 87 -46 57 -59 98 -59 183 l0 76 69 -61 c80 -71 121 -141
121 -208 0 -36 3 -43 20 -43 18 0 20 7 20 58 0 39 -8 73 -25 110 -21 46 -22
52 -7 52 36 -1 103 -40 120 -70 29 -54 36 -60 51 -51 30 19 -21 106 -80 137
-16 8 -55 20 -86 25 -100 19 -157 59 -188 131 -11 29 -15 76 -15 198 0 151 -1
160 -19 160 -18 0 -20 -10 -23 -173z"/>
<path d="M370 1280 c0 -18 7 -20 60 -20 53 0 60 2 60 20 0 18 -7 20 -60 20
-53 0 -60 -2 -60 -20z"/>
<path d="M2070 1280 c0 -18 7 -20 60 -20 53 0 60 2 60 20 0 18 -7 20 -60 20
-53 0 -60 -2 -60 -20z"/>
<path d="M606 661 c-45 -45 -53 -71 -22 -71 21 0 99 87 93 104 -10 24 -19 20
-71 -33z"/>
<path d="M1885 700 c-8 -13 37 -74 71 -97 19 -12 28 -13 37 -4 8 8 -1 23 -38
61 -51 52 -60 57 -70 40z"/>
<path d="M1260 435 c0 -58 2 -65 20 -65 18 0 20 7 20 65 0 58 -2 65 -20 65
-18 0 -20 -7 -20 -65z"/>
</g>
</svg>
